<svg width="28" height="28" viewBox="0 0 28 28" fill="none" xmlns="http://www.w3.org/2000/svg">
<path fill-rule="evenodd" clip-rule="evenodd" d="M25.6668 22.1667C25.6668 22.8107 25.1453 23.3333 24.5002 23.3333C23.855 23.3333 23.3335 22.8107 23.3335 22.1667C23.3335 20.237 21.7632 18.6667 19.8335 18.6667C19.0367 18.6667 18.2795 18.9397 17.6682 19.4238C18.3028 20.5858 18.6668 21.9182 18.6668 23.3333C18.6668 23.9773 18.1453 24.5 17.5002 24.5C16.855 24.5 16.3335 23.9773 16.3335 23.3333C16.3335 20.1168 13.7167 17.5 10.5002 17.5C7.28366 17.5 4.66683 20.1168 4.66683 23.3333C4.66683 23.9773 4.14533 24.5 3.50016 24.5C2.855 24.5 2.3335 23.9773 2.3335 23.3333C2.3335 18.83 5.998 15.1667 10.5002 15.1667C12.7483 15.1667 14.7853 16.0802 16.2635 17.5537C17.2773 16.7697 18.5257 16.3333 19.8335 16.3333C23.05 16.3333 25.6668 18.9502 25.6668 22.1667ZM19.8335 10.5C20.4775 10.5 21.0002 11.0238 21.0002 11.6667C21.0002 12.3095 20.4775 12.8333 19.8335 12.8333C19.1895 12.8333 18.6668 12.3095 18.6668 11.6667C18.6668 11.0238 19.1895 10.5 19.8335 10.5ZM19.8335 15.1667C21.7632 15.1667 23.3335 13.5963 23.3335 11.6667C23.3335 9.737 21.7632 8.16667 19.8335 8.16667C17.9038 8.16667 16.3335 9.737 16.3335 11.6667C16.3335 13.5963 17.9038 15.1667 19.8335 15.1667ZM10.5002 5.83333C11.787 5.83333 12.8335 6.87983 12.8335 8.16667C12.8335 9.4535 11.787 10.5 10.5002 10.5C9.21333 10.5 8.16683 9.4535 8.16683 8.16667C8.16683 6.87983 9.21333 5.83333 10.5002 5.83333ZM10.5002 12.8333C13.0738 12.8333 15.1668 10.7403 15.1668 8.16667C15.1668 5.593 13.0738 3.5 10.5002 3.5C7.9265 3.5 5.8335 5.593 5.8335 8.16667C5.8335 10.7403 7.9265 12.8333 10.5002 12.8333Z" fill="#8F8F8F"/>
</svg>
