<svg width="28" height="28" viewBox="0 0 28 28" fill="none" xmlns="http://www.w3.org/2000/svg">
<path fill-rule="evenodd" clip-rule="evenodd" d="M8.16667 18.6666C8.16667 18.025 8.69167 17.5 9.33333 17.5C9.975 17.5 10.5 18.025 10.5 18.6666C10.5 19.3083 9.975 19.8333 9.33333 19.8333C8.69167 19.8333 8.16667 19.3083 8.16667 18.6666ZM14 17.5H18.6667C19.3083 17.5 19.8333 18.025 19.8333 18.6666C19.8333 19.3083 19.3083 19.8333 18.6667 19.8333H14C13.3583 19.8333 12.8333 19.3083 12.8333 18.6666C12.8333 18.025 13.3583 17.5 14 17.5ZM21 23.3333H7C6.35717 23.3333 5.83333 22.8095 5.83333 22.1666V15.1666H22.1667V22.1666C22.1667 22.8095 21.6428 23.3333 21 23.3333ZM7 6.99998H8.16667V8.16665C8.16667 8.80831 8.69167 9.33331 9.33333 9.33331C9.975 9.33331 10.5 8.80831 10.5 8.16665V6.99998H17.5V8.16665C17.5 8.80831 18.025 9.33331 18.6667 9.33331C19.3083 9.33331 19.8333 8.80831 19.8333 8.16665V6.99998H21C21.6428 6.99998 22.1667 7.52381 22.1667 8.16665V12.8333H5.83333V8.16665C5.83333 7.52381 6.35717 6.99998 7 6.99998ZM21 4.66665H19.8333V3.49998C19.8333 2.85831 19.3083 2.33331 18.6667 2.33331C18.025 2.33331 17.5 2.85831 17.5 3.49998V4.66665H10.5V3.49998C10.5 2.85831 9.975 2.33331 9.33333 2.33331C8.69167 2.33331 8.16667 2.85831 8.16667 3.49998V4.66665H7C5.07033 4.66665 3.5 6.23698 3.5 8.16665V22.1666C3.5 24.0963 5.07033 25.6666 7 25.6666H21C22.9297 25.6666 24.5 24.0963 24.5 22.1666V8.16665C24.5 6.23698 22.9297 4.66665 21 4.66665Z" fill="#8F8F8F"/>
<mask id="mask0" mask-type="alpha" maskUnits="userSpaceOnUse" x="3" y="2" width="22" height="24">
<path fill-rule="evenodd" clip-rule="evenodd" d="M8.16667 18.6666C8.16667 18.025 8.69167 17.5 9.33333 17.5C9.975 17.5 10.5 18.025 10.5 18.6666C10.5 19.3083 9.975 19.8333 9.33333 19.8333C8.69167 19.8333 8.16667 19.3083 8.16667 18.6666ZM14 17.5H18.6667C19.3083 17.5 19.8333 18.025 19.8333 18.6666C19.8333 19.3083 19.3083 19.8333 18.6667 19.8333H14C13.3583 19.8333 12.8333 19.3083 12.8333 18.6666C12.8333 18.025 13.3583 17.5 14 17.5ZM21 23.3333H7C6.35717 23.3333 5.83333 22.8095 5.83333 22.1666V15.1666H22.1667V22.1666C22.1667 22.8095 21.6428 23.3333 21 23.3333ZM7 6.99998H8.16667V8.16665C8.16667 8.80831 8.69167 9.33331 9.33333 9.33331C9.975 9.33331 10.5 8.80831 10.5 8.16665V6.99998H17.5V8.16665C17.5 8.80831 18.025 9.33331 18.6667 9.33331C19.3083 9.33331 19.8333 8.80831 19.8333 8.16665V6.99998H21C21.6428 6.99998 22.1667 7.52381 22.1667 8.16665V12.8333H5.83333V8.16665C5.83333 7.52381 6.35717 6.99998 7 6.99998ZM21 4.66665H19.8333V3.49998C19.8333 2.85831 19.3083 2.33331 18.6667 2.33331C18.025 2.33331 17.5 2.85831 17.5 3.49998V4.66665H10.5V3.49998C10.5 2.85831 9.975 2.33331 9.33333 2.33331C8.69167 2.33331 8.16667 2.85831 8.16667 3.49998V4.66665H7C5.07033 4.66665 3.5 6.23698 3.5 8.16665V22.1666C3.5 24.0963 5.07033 25.6666 7 25.6666H21C22.9297 25.6666 24.5 24.0963 24.5 22.1666V8.16665C24.5 6.23698 22.9297 4.66665 21 4.66665Z" fill="white"/>
</mask>
<g mask="url(#mask0)">
</g>
</svg>
