<svg width="28" height="28" viewBox="0 0 28 28" fill="none" xmlns="http://www.w3.org/2000/svg">
<path fill-rule="evenodd" clip-rule="evenodd" d="M17.5 22.1667V17.5H22.1667L22.1678 22.1667H17.5ZM22.1667 15.1667H17.5C16.2132 15.1667 15.1667 16.2132 15.1667 17.5V22.1667C15.1667 23.4535 16.2132 24.5 17.5 24.5H22.1667C23.4535 24.5 24.5 23.4535 24.5 22.1667V17.5C24.5 16.2132 23.4535 15.1667 22.1667 15.1667ZM5.83333 22.1667V17.5H10.5L10.5012 22.1667H5.83333ZM10.5 15.1667H5.83333C4.5465 15.1667 3.5 16.2132 3.5 17.5V22.1667C3.5 23.4535 4.5465 24.5 5.83333 24.5H10.5C11.7868 24.5 12.8333 23.4535 12.8333 22.1667V17.5C12.8333 16.2132 11.7868 15.1667 10.5 15.1667ZM17.5 10.5V5.83333H22.1667L22.1678 10.5H17.5ZM22.1667 3.5H17.5C16.2132 3.5 15.1667 4.5465 15.1667 5.83333V10.5C15.1667 11.7868 16.2132 12.8333 17.5 12.8333H22.1667C23.4535 12.8333 24.5 11.7868 24.5 10.5V5.83333C24.5 4.5465 23.4535 3.5 22.1667 3.5ZM5.83333 10.5V5.83333H10.5L10.5012 10.5H5.83333ZM10.5 3.5H5.83333C4.5465 3.5 3.5 4.5465 3.5 5.83333V10.5C3.5 11.7868 4.5465 12.8333 5.83333 12.8333H10.5C11.7868 12.8333 12.8333 11.7868 12.8333 10.5V5.83333C12.8333 4.5465 11.7868 3.5 10.5 3.5Z" fill="#8F8F8F"/>
<mask id="mask0" mask-type="alpha" maskUnits="userSpaceOnUse" x="3" y="3" width="22" height="22">
<path fill-rule="evenodd" clip-rule="evenodd" d="M17.5 22.1667V17.5H22.1667L22.1678 22.1667H17.5ZM22.1667 15.1667H17.5C16.2132 15.1667 15.1667 16.2132 15.1667 17.5V22.1667C15.1667 23.4535 16.2132 24.5 17.5 24.5H22.1667C23.4535 24.5 24.5 23.4535 24.5 22.1667V17.5C24.5 16.2132 23.4535 15.1667 22.1667 15.1667ZM5.83333 22.1667V17.5H10.5L10.5012 22.1667H5.83333ZM10.5 15.1667H5.83333C4.5465 15.1667 3.5 16.2132 3.5 17.5V22.1667C3.5 23.4535 4.5465 24.5 5.83333 24.5H10.5C11.7868 24.5 12.8333 23.4535 12.8333 22.1667V17.5C12.8333 16.2132 11.7868 15.1667 10.5 15.1667ZM17.5 10.5V5.83333H22.1667L22.1678 10.5H17.5ZM22.1667 3.5H17.5C16.2132 3.5 15.1667 4.5465 15.1667 5.83333V10.5C15.1667 11.7868 16.2132 12.8333 17.5 12.8333H22.1667C23.4535 12.8333 24.5 11.7868 24.5 10.5V5.83333C24.5 4.5465 23.4535 3.5 22.1667 3.5ZM5.83333 10.5V5.83333H10.5L10.5012 10.5H5.83333ZM10.5 3.5H5.83333C4.5465 3.5 3.5 4.5465 3.5 5.83333V10.5C3.5 11.7868 4.5465 12.8333 5.83333 12.8333H10.5C11.7868 12.8333 12.8333 11.7868 12.8333 10.5V5.83333C12.8333 4.5465 11.7868 3.5 10.5 3.5Z" fill="white"/>
</mask>
<g mask="url(#mask0)">
</g>
</svg>
