<svg width="28" height="28" viewBox="0 0 28 28" fill="none" xmlns="http://www.w3.org/2000/svg">
<path fill-rule="evenodd" clip-rule="evenodd" d="M20.3517 23.3333H7.64786C7.29086 23.3333 7.00036 23.072 7.00036 22.75V5.24999C7.00036 4.92799 7.29086 4.66666 7.64786 4.66666H12.8337V9.50833C12.8337 11.3423 14.2535 12.8333 16 12.8333H21.0004V22.75C21.0004 23.072 20.7087 23.3333 20.3517 23.3333ZM20.5909 10.5H16C15.5404 10.5 15.167 10.0555 15.167 9.50833V4.66666H15.2977L20.5909 10.5ZM23.0304 9.716L16.679 2.71599C16.4585 2.47216 16.1447 2.33333 15.8145 2.33333H7.64786C6.00402 2.33333 4.66702 3.64233 4.66702 5.25V22.75C4.66702 24.3577 6.00402 25.6667 7.64786 25.6667H20.3517C21.9955 25.6667 23.3337 24.3577 23.3337 22.75V10.5C23.3337 10.2095 23.2252 9.93066 23.0304 9.716Z" fill="#8F8F8F"/>
<mask id="mask0" mask-type="alpha" maskUnits="userSpaceOnUse" x="4" y="2" width="20" height="24">
<path fill-rule="evenodd" clip-rule="evenodd" d="M20.3517 23.3333H7.64786C7.29086 23.3333 7.00036 23.072 7.00036 22.75V5.24999C7.00036 4.92799 7.29086 4.66666 7.64786 4.66666H12.8337V9.50833C12.8337 11.3423 14.2535 12.8333 16 12.8333H21.0004V22.75C21.0004 23.072 20.7087 23.3333 20.3517 23.3333ZM20.5909 10.5H16C15.5404 10.5 15.167 10.0555 15.167 9.50833V4.66666H15.2977L20.5909 10.5ZM23.0304 9.716L16.679 2.71599C16.4585 2.47216 16.1447 2.33333 15.8145 2.33333H7.64786C6.00402 2.33333 4.66702 3.64233 4.66702 5.25V22.75C4.66702 24.3577 6.00402 25.6667 7.64786 25.6667H20.3517C21.9955 25.6667 23.3337 24.3577 23.3337 22.75V10.5C23.3337 10.2095 23.2252 9.93066 23.0304 9.716Z" fill="white"/>
</mask>
<g mask="url(#mask0)">
</g>
</svg>
