<svg width="28" height="28" viewBox="0 0 28 28" fill="none" xmlns="http://www.w3.org/2000/svg">
<path fill-rule="evenodd" clip-rule="evenodd" d="M12.8333 9.33325C12.8333 8.68925 13.3559 8.16658 13.9999 8.16658C14.6439 8.16658 15.1666 8.68925 15.1666 9.33325V15.1666C15.1666 15.8106 14.6439 16.3333 13.9999 16.3333C13.3559 16.3333 12.8333 15.8106 12.8333 15.1666V9.33325ZM12.8333 18.6666C12.8333 18.0226 13.3559 17.4999 13.9999 17.4999C14.6439 17.4999 15.1666 18.0226 15.1666 18.6666C15.1666 19.3106 14.6439 19.8333 13.9999 19.8333C13.3559 19.8333 12.8333 19.3106 12.8333 18.6666ZM13.9999 23.3333C8.85375 23.3333 4.66659 19.1461 4.66659 13.9999C4.66659 8.85375 8.85375 4.66659 13.9999 4.66659C19.1461 4.66659 23.3333 8.85375 23.3333 13.9999C23.3333 19.1461 19.1461 23.3333 13.9999 23.3333ZM13.9999 2.33325C7.55642 2.33325 2.33325 7.55642 2.33325 13.9999C2.33325 20.4434 7.55642 25.6666 13.9999 25.6666C20.4434 25.6666 25.6666 20.4434 25.6666 13.9999C25.6666 7.55642 20.4434 2.33325 13.9999 2.33325Z" fill="#8F8F8F"/>
<mask id="mask0" mask-type="alpha" maskUnits="userSpaceOnUse" x="2" y="2" width="24" height="24">
<path fill-rule="evenodd" clip-rule="evenodd" d="M12.8333 9.33325C12.8333 8.68925 13.3559 8.16658 13.9999 8.16658C14.6439 8.16658 15.1666 8.68925 15.1666 9.33325V15.1666C15.1666 15.8106 14.6439 16.3333 13.9999 16.3333C13.3559 16.3333 12.8333 15.8106 12.8333 15.1666V9.33325ZM12.8333 18.6666C12.8333 18.0226 13.3559 17.4999 13.9999 17.4999C14.6439 17.4999 15.1666 18.0226 15.1666 18.6666C15.1666 19.3106 14.6439 19.8333 13.9999 19.8333C13.3559 19.8333 12.8333 19.3106 12.8333 18.6666ZM13.9999 23.3333C8.85375 23.3333 4.66659 19.1461 4.66659 13.9999C4.66659 8.85375 8.85375 4.66659 13.9999 4.66659C19.1461 4.66659 23.3333 8.85375 23.3333 13.9999C23.3333 19.1461 19.1461 23.3333 13.9999 23.3333ZM13.9999 2.33325C7.55642 2.33325 2.33325 7.55642 2.33325 13.9999C2.33325 20.4434 7.55642 25.6666 13.9999 25.6666C20.4434 25.6666 25.6666 20.4434 25.6666 13.9999C25.6666 7.55642 20.4434 2.33325 13.9999 2.33325Z" fill="white"/>
</mask>
<g mask="url(#mask0)">
</g>
</svg>
