<svg width="28" height="28" viewBox="0 0 28 28" fill="none" xmlns="http://www.w3.org/2000/svg">
<path fill-rule="evenodd" clip-rule="evenodd" d="M14 16.3333H10.5C9.85601 16.3333 9.33334 15.8107 9.33334 15.1667C9.33334 14.5227 9.85601 14 10.5 14H14C14.644 14 15.1667 14.5227 15.1667 15.1667C15.1667 15.8107 14.644 16.3333 14 16.3333ZM9.33334 19.8333C9.33334 19.1893 9.85601 18.6667 10.5 18.6667H17.5C18.1452 18.6667 18.6667 19.1893 18.6667 19.8333C18.6667 20.4773 18.1452 21 17.5 21H10.5C9.85601 21 9.33334 20.4773 9.33334 19.8333ZM20.3517 23.3333H7.64786C7.29086 23.3333 7.00036 23.072 7.00036 22.75V5.25001C7.00036 4.92801 7.29086 4.66668 7.64786 4.66668H14.0004V8.34168C14.0004 10.1757 15.4202 11.6667 17.1667 11.6667H21.0004V22.75C21.0004 23.072 20.7099 23.3333 20.3517 23.3333ZM16.3337 5.80768L19.5327 9.33335H17.1667C16.707 9.33335 16.3337 8.88885 16.3337 8.34168V5.80768ZM23.0304 9.71601L16.679 2.71601C16.4574 2.47218 16.1447 2.33334 15.8145 2.33334H7.64786C6.00402 2.33334 4.66702 3.64234 4.66702 5.25001V22.75C4.66702 24.3577 6.00402 25.6667 7.64786 25.6667H20.3517C21.9955 25.6667 23.3337 24.3577 23.3337 22.75V10.5C23.3337 10.2095 23.2252 9.93068 23.0304 9.71601Z" fill="#8F8F8F"/>
<mask id="mask0" mask-type="alpha" maskUnits="userSpaceOnUse" x="4" y="2" width="20" height="24">
<path fill-rule="evenodd" clip-rule="evenodd" d="M14 16.3333H10.5C9.85601 16.3333 9.33334 15.8107 9.33334 15.1667C9.33334 14.5227 9.85601 14 10.5 14H14C14.644 14 15.1667 14.5227 15.1667 15.1667C15.1667 15.8107 14.644 16.3333 14 16.3333ZM9.33334 19.8333C9.33334 19.1893 9.85601 18.6667 10.5 18.6667H17.5C18.1452 18.6667 18.6667 19.1893 18.6667 19.8333C18.6667 20.4773 18.1452 21 17.5 21H10.5C9.85601 21 9.33334 20.4773 9.33334 19.8333ZM20.3517 23.3333H7.64786C7.29086 23.3333 7.00036 23.072 7.00036 22.75V5.25001C7.00036 4.92801 7.29086 4.66668 7.64786 4.66668H14.0004V8.34168C14.0004 10.1757 15.4202 11.6667 17.1667 11.6667H21.0004V22.75C21.0004 23.072 20.7099 23.3333 20.3517 23.3333ZM16.3337 5.80768L19.5327 9.33335H17.1667C16.707 9.33335 16.3337 8.88885 16.3337 8.34168V5.80768ZM23.0304 9.71601L16.679 2.71601C16.4574 2.47218 16.1447 2.33334 15.8145 2.33334H7.64786C6.00402 2.33334 4.66702 3.64234 4.66702 5.25001V22.75C4.66702 24.3577 6.00402 25.6667 7.64786 25.6667H20.3517C21.9955 25.6667 23.3337 24.3577 23.3337 22.75V10.5C23.3337 10.2095 23.2252 9.93068 23.0304 9.71601Z" fill="white"/>
</mask>
<g mask="url(#mask0)">
</g>
</svg>
