<svg width="28" height="28" viewBox="0 0 28 28" fill="none" xmlns="http://www.w3.org/2000/svg">
<path fill-rule="evenodd" clip-rule="evenodd" d="M11.3146 16.3333L12.1651 11.6667H16.6859L15.8354 16.3333H11.3146ZM23.3336 16.3333H18.3146L19.1651 11.6667H23.3336C23.9752 11.6667 24.5002 11.1417 24.5002 10.5C24.5002 9.85833 23.9752 9.33333 23.3336 9.33333H19.5886L20.3982 4.88717C20.5149 4.24783 20.0692 3.63067 19.4077 3.51867C18.7462 3.4055 18.1104 3.83717 17.9937 4.47767L17.1094 9.33333H12.5886L13.3982 4.88717C13.5149 4.24783 13.0692 3.63067 12.4077 3.51867C11.7462 3.4055 11.1104 3.83717 10.9937 4.47767L10.1094 9.33333H4.66691C4.02524 9.33333 3.50024 9.85833 3.50024 10.5C3.50024 11.1417 4.02524 11.6667 4.66691 11.6667H9.68591L8.83541 16.3333H4.66691C4.02524 16.3333 3.50024 16.8583 3.50024 17.5C3.50024 18.1417 4.02524 18.6667 4.66691 18.6667H8.41074L7.60108 23.1128C7.48558 23.7522 7.93124 24.3693 8.59274 24.4813C9.25308 24.5945 9.89008 24.1628 10.0056 23.5223L10.8899 18.6667H15.4107L14.6011 23.1128C14.4856 23.7522 14.9312 24.3693 15.5927 24.4813C16.2531 24.5945 16.8901 24.1628 17.0056 23.5223L17.8899 18.6667H23.3336C23.9752 18.6667 24.5002 18.1417 24.5002 17.5C24.5002 16.8583 23.9752 16.3333 23.3336 16.3333Z" fill="#8F8F8F"/>
<mask id="mask0" mask-type="alpha" maskUnits="userSpaceOnUse" x="3" y="3" width="22" height="22">
<path fill-rule="evenodd" clip-rule="evenodd" d="M11.3146 16.3333L12.1651 11.6667H16.6859L15.8354 16.3333H11.3146ZM23.3336 16.3333H18.3146L19.1651 11.6667H23.3336C23.9752 11.6667 24.5002 11.1417 24.5002 10.5C24.5002 9.85833 23.9752 9.33333 23.3336 9.33333H19.5886L20.3982 4.88717C20.5149 4.24783 20.0692 3.63067 19.4077 3.51867C18.7462 3.4055 18.1104 3.83717 17.9937 4.47767L17.1094 9.33333H12.5886L13.3982 4.88717C13.5149 4.24783 13.0692 3.63067 12.4077 3.51867C11.7462 3.4055 11.1104 3.83717 10.9937 4.47767L10.1094 9.33333H4.66691C4.02524 9.33333 3.50024 9.85833 3.50024 10.5C3.50024 11.1417 4.02524 11.6667 4.66691 11.6667H9.68591L8.83541 16.3333H4.66691C4.02524 16.3333 3.50024 16.8583 3.50024 17.5C3.50024 18.1417 4.02524 18.6667 4.66691 18.6667H8.41074L7.60108 23.1128C7.48558 23.7522 7.93124 24.3693 8.59274 24.4813C9.25308 24.5945 9.89008 24.1628 10.0056 23.5223L10.8899 18.6667H15.4107L14.6011 23.1128C14.4856 23.7522 14.9312 24.3693 15.5927 24.4813C16.2531 24.5945 16.8901 24.1628 17.0056 23.5223L17.8899 18.6667H23.3336C23.9752 18.6667 24.5002 18.1417 24.5002 17.5C24.5002 16.8583 23.9752 16.3333 23.3336 16.3333Z" fill="white"/>
</mask>
<g mask="url(#mask0)">
</g>
</svg>
