<svg width="28" height="28" viewBox="0 0 28 28" fill="none" xmlns="http://www.w3.org/2000/svg">
<path fill-rule="evenodd" clip-rule="evenodd" d="M10.8425 24.4999C8.91047 24.4999 7.07413 23.7229 5.6718 22.3124C2.8858 19.5089 2.77147 15.0639 5.4163 12.4028L14.0333 3.73442C14.9305 2.83142 16.1415 2.33325 17.4423 2.33325C18.8341 2.33325 20.1571 2.89209 21.1663 3.90709C23.1741 5.92658 23.2511 9.13609 21.3366 11.0611L12.7091 19.7283C12.1503 20.2918 11.3978 20.6009 10.5905 20.6009C9.73763 20.6009 8.92913 20.2603 8.31547 19.6431C7.08697 18.4053 7.04847 16.4324 8.2303 15.2424L16.1928 7.24492C16.6478 6.78759 17.3851 6.78525 17.8425 7.24025C18.2986 7.69525 18.301 8.43375 17.846 8.88992L9.88463 16.8886C9.60463 17.1709 9.64313 17.6691 9.97097 17.9981C10.1413 18.1696 10.3676 18.2676 10.5905 18.2676C10.7188 18.2676 10.9031 18.2361 11.0548 18.0833L19.6823 9.41609C20.6938 8.39759 20.618 6.66509 19.512 5.55209C18.4538 4.48809 16.6583 4.40409 15.6876 5.37942L7.07063 14.0478C5.32763 15.8013 5.44197 18.7716 7.3273 20.6674C8.28747 21.6346 9.5358 22.1666 10.8425 22.1666C12.0103 22.1666 13.093 21.7256 13.8886 20.9253L22.5068 12.2569C22.9606 11.8008 23.6991 11.7973 24.1565 12.2523C24.6126 12.7073 24.615 13.4446 24.1611 13.9019L15.543 22.5703C14.3063 23.8139 12.6368 24.4999 10.8425 24.4999Z" fill="#8F8F8F"/>
<mask id="mask0" mask-type="alpha" maskUnits="userSpaceOnUse" x="3" y="2" width="22" height="23">
<path fill-rule="evenodd" clip-rule="evenodd" d="M10.8425 24.4999C8.91047 24.4999 7.07413 23.7229 5.6718 22.3124C2.8858 19.5089 2.77147 15.0639 5.4163 12.4028L14.0333 3.73442C14.9305 2.83142 16.1415 2.33325 17.4423 2.33325C18.8341 2.33325 20.1571 2.89209 21.1663 3.90709C23.1741 5.92658 23.2511 9.13609 21.3366 11.0611L12.7091 19.7283C12.1503 20.2918 11.3978 20.6009 10.5905 20.6009C9.73763 20.6009 8.92913 20.2603 8.31547 19.6431C7.08697 18.4053 7.04847 16.4324 8.2303 15.2424L16.1928 7.24492C16.6478 6.78759 17.3851 6.78525 17.8425 7.24025C18.2986 7.69525 18.301 8.43375 17.846 8.88992L9.88463 16.8886C9.60463 17.1709 9.64313 17.6691 9.97097 17.9981C10.1413 18.1696 10.3676 18.2676 10.5905 18.2676C10.7188 18.2676 10.9031 18.2361 11.0548 18.0833L19.6823 9.41609C20.6938 8.39759 20.618 6.66509 19.512 5.55209C18.4538 4.48809 16.6583 4.40409 15.6876 5.37942L7.07063 14.0478C5.32763 15.8013 5.44197 18.7716 7.3273 20.6674C8.28747 21.6346 9.5358 22.1666 10.8425 22.1666C12.0103 22.1666 13.093 21.7256 13.8886 20.9253L22.5068 12.2569C22.9606 11.8008 23.6991 11.7973 24.1565 12.2523C24.6126 12.7073 24.615 13.4446 24.1611 13.9019L15.543 22.5703C14.3063 23.8139 12.6368 24.4999 10.8425 24.4999Z" fill="white"/>
</mask>
<g mask="url(#mask0)">
</g>
</svg>
