<svg width="28" height="28" viewBox="0 0 28 28" fill="none" xmlns="http://www.w3.org/2000/svg">
<path fill-rule="evenodd" clip-rule="evenodd" d="M20.7203 18.1298L14.0003 21.988L7.2803 18.1298L9.25664 17.2886L13.4193 19.678C13.599 19.7818 13.7996 19.8331 14.0003 19.8331C14.201 19.8331 14.4005 19.7818 14.5813 19.678L18.744 17.2875L20.7203 18.1298ZM13.4193 15.0113C13.599 15.1151 13.7996 15.1665 14.0003 15.1665C14.201 15.1665 14.4005 15.1151 14.5813 15.0113L18.744 12.6208L20.7203 13.4631L14.0003 17.3213L7.2803 13.4631L9.25664 12.6208L13.4193 15.0113ZM14.0003 5.93464L20.7203 8.79647L14.0003 12.6546L7.2803 8.79647L14.0003 5.93464ZM24.498 13.2391C24.4711 12.797 24.197 12.4085 23.7898 12.2346L21.2791 11.166L23.9146 9.6528C24.2985 9.43347 24.5236 9.01464 24.498 8.57247C24.4711 8.13147 24.197 7.7418 23.7898 7.56797L14.4565 3.59314C14.1648 3.4683 13.8346 3.4683 13.543 3.59314L4.20964 7.56797C3.80247 7.7418 3.5283 8.13147 3.50264 8.57247C3.4758 9.01464 3.70214 9.43347 4.08597 9.6528L6.7203 11.166L4.20964 12.2346C3.80247 12.4085 3.5283 12.797 3.50264 13.2391C3.4758 13.6813 3.70214 14.1001 4.08597 14.3195L6.7203 15.8326L4.20964 16.9013C3.80247 17.0751 3.5283 17.4636 3.50264 17.9058C3.4758 18.348 3.70214 18.7668 4.08597 18.9861L13.4193 24.3446C13.599 24.4485 13.7996 24.4998 14.0003 24.4998C14.201 24.4998 14.4005 24.4485 14.5813 24.3446L23.9146 18.9861C24.2985 18.7668 24.5236 18.348 24.498 17.9058C24.4711 17.4648 24.197 17.0751 23.791 16.9013L21.2803 15.8315L23.9146 14.3195C24.2985 14.1001 24.5236 13.6813 24.498 13.2391Z" fill="#8F8F8F"/>
<mask id="mask0" mask-type="alpha" maskUnits="userSpaceOnUse" x="3" y="3" width="22" height="22">
<path fill-rule="evenodd" clip-rule="evenodd" d="M20.7203 18.1298L14.0003 21.988L7.2803 18.1298L9.25664 17.2886L13.4193 19.678C13.599 19.7818 13.7996 19.8331 14.0003 19.8331C14.201 19.8331 14.4005 19.7818 14.5813 19.678L18.744 17.2875L20.7203 18.1298ZM13.4193 15.0113C13.599 15.1151 13.7996 15.1665 14.0003 15.1665C14.201 15.1665 14.4005 15.1151 14.5813 15.0113L18.744 12.6208L20.7203 13.4631L14.0003 17.3213L7.2803 13.4631L9.25664 12.6208L13.4193 15.0113ZM14.0003 5.93464L20.7203 8.79647L14.0003 12.6546L7.2803 8.79647L14.0003 5.93464ZM24.498 13.2391C24.4711 12.797 24.197 12.4085 23.7898 12.2346L21.2791 11.166L23.9146 9.6528C24.2985 9.43347 24.5236 9.01464 24.498 8.57247C24.4711 8.13147 24.197 7.7418 23.7898 7.56797L14.4565 3.59314C14.1648 3.4683 13.8346 3.4683 13.543 3.59314L4.20964 7.56797C3.80247 7.7418 3.5283 8.13147 3.50264 8.57247C3.4758 9.01464 3.70214 9.43347 4.08597 9.6528L6.7203 11.166L4.20964 12.2346C3.80247 12.4085 3.5283 12.797 3.50264 13.2391C3.4758 13.6813 3.70214 14.1001 4.08597 14.3195L6.7203 15.8326L4.20964 16.9013C3.80247 17.0751 3.5283 17.4636 3.50264 17.9058C3.4758 18.348 3.70214 18.7668 4.08597 18.9861L13.4193 24.3446C13.599 24.4485 13.7996 24.4998 14.0003 24.4998C14.201 24.4998 14.4005 24.4485 14.5813 24.3446L23.9146 18.9861C24.2985 18.7668 24.5236 18.348 24.498 17.9058C24.4711 17.4648 24.197 17.0751 23.791 16.9013L21.2803 15.8315L23.9146 14.3195C24.2985 14.1001 24.5236 13.6813 24.498 13.2391Z" fill="white"/>
</mask>
<g mask="url(#mask0)">
</g>
</svg>
