<svg width="28" height="28" viewBox="0 0 28 28" fill="none" xmlns="http://www.w3.org/2000/svg">
<path fill-rule="evenodd" clip-rule="evenodd" d="M4.66659 16.0482V21.08C4.66659 21.3577 4.92792 21.584 5.24992 21.584H22.7499C23.0719 21.584 23.3333 21.3577 23.3333 21.08V11.0583C23.3333 10.7795 23.0719 10.5543 22.7499 10.5543H13.9999C13.6499 10.5543 13.3186 10.3968 13.0969 10.125L10.0636 6.41732H5.24992C4.92792 6.41732 4.66659 6.64248 4.66659 6.92015V16.0482ZM22.7499 23.9173H5.24992C3.64225 23.9173 2.33325 22.6445 2.33325 21.08V6.92015C2.33325 5.35565 3.64225 4.08398 5.24992 4.08398H10.6178C10.9666 4.08398 11.2991 4.24032 11.5208 4.51215L14.5529 8.22098H22.7499C24.3576 8.22098 25.6666 9.49265 25.6666 11.0583V21.08C25.6666 22.6445 24.3576 23.9173 22.7499 23.9173Z" fill="#8F8F8F"/>
<mask id="mask0" mask-type="alpha" maskUnits="userSpaceOnUse" x="2" y="4" width="24" height="20">
<path fill-rule="evenodd" clip-rule="evenodd" d="M4.66659 16.0482V21.08C4.66659 21.3577 4.92792 21.584 5.24992 21.584H22.7499C23.0719 21.584 23.3333 21.3577 23.3333 21.08V11.0583C23.3333 10.7795 23.0719 10.5543 22.7499 10.5543H13.9999C13.6499 10.5543 13.3186 10.3968 13.0969 10.125L10.0636 6.41732H5.24992C4.92792 6.41732 4.66659 6.64248 4.66659 6.92015V16.0482ZM22.7499 23.9173H5.24992C3.64225 23.9173 2.33325 22.6445 2.33325 21.08V6.92015C2.33325 5.35565 3.64225 4.08398 5.24992 4.08398H10.6178C10.9666 4.08398 11.2991 4.24032 11.5208 4.51215L14.5529 8.22098H22.7499C24.3576 8.22098 25.6666 9.49265 25.6666 11.0583V21.08C25.6666 22.6445 24.3576 23.9173 22.7499 23.9173Z" fill="white"/>
</mask>
<g mask="url(#mask0)">
</g>
</svg>
