<svg width="28" height="28" viewBox="0 0 28 28" fill="none" xmlns="http://www.w3.org/2000/svg">
<path fill-rule="evenodd" clip-rule="evenodd" d="M8.16691 12.8325C8.16691 12.1885 8.68958 11.6658 9.33358 11.6658C9.97758 11.6658 10.5002 12.1885 10.5002 12.8325C10.5002 13.4765 9.97758 13.9991 9.33358 13.9991C8.68958 13.9991 8.16691 13.4765 8.16691 12.8325ZM14.0002 11.6658C13.3562 11.6658 12.8336 12.1885 12.8336 12.8325C12.8336 13.4765 13.3562 13.9991 14.0002 13.9991C14.6442 13.9991 15.1669 13.4765 15.1669 12.8325C15.1669 12.1885 14.6442 11.6658 14.0002 11.6658ZM18.6669 11.6658C18.0229 11.6658 17.5002 12.1885 17.5002 12.8325C17.5002 13.4765 18.0229 13.9991 18.6669 13.9991C19.3109 13.9991 19.8336 13.4765 19.8336 12.8325C19.8336 12.1885 19.3109 11.6658 18.6669 11.6658ZM23.215 14.3432C22.6235 18.1395 19.5634 21.2884 15.7729 21.9989C13.9424 22.3442 12.078 22.147 10.3864 21.4307C9.90688 21.2277 9.41104 21.125 8.92454 21.125C8.70288 21.125 8.48354 21.146 8.26771 21.1892L4.98704 21.8449L5.64388 18.5584C5.78154 17.8759 5.69754 17.1455 5.40238 16.4467C4.68604 14.755 4.49004 12.8919 4.83421 11.0602C5.54471 7.26969 8.69238 4.20952 12.4899 3.61802C15.5115 3.14786 18.4667 4.09986 20.5994 6.23252C22.7332 8.36636 23.6864 11.3227 23.215 14.3432ZM22.2502 4.58286C19.5844 1.91819 15.8977 0.729356 12.1305 1.31152C7.37404 2.05352 3.43071 5.88486 2.54054 10.6297C2.11121 12.914 2.35854 15.2404 3.25338 17.3555C3.36654 17.625 3.40154 17.8759 3.35721 18.101L2.35621 23.1037C2.27921 23.4864 2.39938 23.8819 2.67588 24.1572C2.89638 24.3789 3.19388 24.499 3.50071 24.499C3.57654 24.499 3.65238 24.492 3.72938 24.4769L8.72621 23.477C9.01321 23.4222 9.29088 23.5027 9.47638 23.5797C11.5939 24.4745 13.9202 24.7207 16.2022 24.2925C20.9482 23.4024 24.7795 19.459 25.5215 14.7025C26.1072 10.9377 24.916 7.24869 22.2502 4.58286Z" fill="#8F8F8F"/>
<mask id="mask0" mask-type="alpha" maskUnits="userSpaceOnUse" x="2" y="1" width="24" height="24">
<path fill-rule="evenodd" clip-rule="evenodd" d="M8.16691 12.8325C8.16691 12.1885 8.68958 11.6658 9.33358 11.6658C9.97758 11.6658 10.5002 12.1885 10.5002 12.8325C10.5002 13.4765 9.97758 13.9991 9.33358 13.9991C8.68958 13.9991 8.16691 13.4765 8.16691 12.8325ZM14.0002 11.6658C13.3562 11.6658 12.8336 12.1885 12.8336 12.8325C12.8336 13.4765 13.3562 13.9991 14.0002 13.9991C14.6442 13.9991 15.1669 13.4765 15.1669 12.8325C15.1669 12.1885 14.6442 11.6658 14.0002 11.6658ZM18.6669 11.6658C18.0229 11.6658 17.5002 12.1885 17.5002 12.8325C17.5002 13.4765 18.0229 13.9991 18.6669 13.9991C19.3109 13.9991 19.8336 13.4765 19.8336 12.8325C19.8336 12.1885 19.3109 11.6658 18.6669 11.6658ZM23.215 14.3432C22.6235 18.1395 19.5634 21.2884 15.7729 21.9989C13.9424 22.3442 12.078 22.147 10.3864 21.4307C9.90688 21.2277 9.41104 21.125 8.92454 21.125C8.70288 21.125 8.48354 21.146 8.26771 21.1892L4.98704 21.8449L5.64388 18.5584C5.78154 17.8759 5.69754 17.1455 5.40238 16.4467C4.68604 14.755 4.49004 12.8919 4.83421 11.0602C5.54471 7.26969 8.69238 4.20952 12.4899 3.61802C15.5115 3.14786 18.4667 4.09986 20.5994 6.23252C22.7332 8.36636 23.6864 11.3227 23.215 14.3432ZM22.2502 4.58286C19.5844 1.91819 15.8977 0.729356 12.1305 1.31152C7.37404 2.05352 3.43071 5.88486 2.54054 10.6297C2.11121 12.914 2.35854 15.2404 3.25338 17.3555C3.36654 17.625 3.40154 17.8759 3.35721 18.101L2.35621 23.1037C2.27921 23.4864 2.39938 23.8819 2.67588 24.1572C2.89638 24.3789 3.19388 24.499 3.50071 24.499C3.57654 24.499 3.65238 24.492 3.72938 24.4769L8.72621 23.477C9.01321 23.4222 9.29088 23.5027 9.47638 23.5797C11.5939 24.4745 13.9202 24.7207 16.2022 24.2925C20.9482 23.4024 24.7795 19.459 25.5215 14.7025C26.1072 10.9377 24.916 7.24869 22.2502 4.58286Z" fill="white"/>
</mask>
<g mask="url(#mask0)">
</g>
</svg>
