<svg width="28" height="28" viewBox="0 0 28 28" fill="none" xmlns="http://www.w3.org/2000/svg">
<path fill-rule="evenodd" clip-rule="evenodd" d="M23.6868 15.6637C23.0732 15.4688 22.4175 15.8083 22.2215 16.422C21.1283 19.859 17.9107 22.1667 14.2147 22.1667C9.59233 22.1667 5.83333 18.5033 5.83333 14C5.83333 9.49783 9.59233 5.83333 14.2147 5.83333C16.2307 5.83333 18.1323 6.53567 19.6338 7.78167L17.1068 7.36517C16.4652 7.2485 15.8702 7.69067 15.7652 8.32533C15.6602 8.96117 16.0907 9.562 16.7265 9.66583L21.6802 10.4848C21.7443 10.4953 21.8097 10.5 21.8715 10.5C22.0103 10.5 22.1457 10.4755 22.2717 10.4288C22.3148 10.4125 22.3498 10.3822 22.3918 10.36C22.4688 10.3203 22.5493 10.2853 22.6158 10.2293C22.6578 10.1955 22.6847 10.1465 22.7208 10.1068C22.7757 10.0497 22.834 9.99483 22.8748 9.92483C22.904 9.87467 22.9157 9.81517 22.9378 9.75917C22.9658 9.69033 23.0032 9.62617 23.0172 9.55033L23.8968 4.88367C24.0158 4.25017 23.5993 3.63883 22.9658 3.521C22.3347 3.40667 21.7222 3.8185 21.6032 4.45083L21.2858 6.132C19.3445 4.45083 16.856 3.5 14.2147 3.5C8.30667 3.5 3.5 8.20983 3.5 14C3.5 19.7902 8.30667 24.5 14.2147 24.5C18.9303 24.5 23.0417 21.5378 24.4452 17.129C24.64 16.5153 24.3005 15.8597 23.6868 15.6637Z" fill="#8F8F8F"/>
<mask id="mask0" mask-type="alpha" maskUnits="userSpaceOnUse" x="3" y="3" width="22" height="22">
<path fill-rule="evenodd" clip-rule="evenodd" d="M23.6868 15.6637C23.0732 15.4688 22.4175 15.8083 22.2215 16.422C21.1283 19.859 17.9107 22.1667 14.2147 22.1667C9.59233 22.1667 5.83333 18.5033 5.83333 14C5.83333 9.49783 9.59233 5.83333 14.2147 5.83333C16.2307 5.83333 18.1323 6.53567 19.6338 7.78167L17.1068 7.36517C16.4652 7.2485 15.8702 7.69067 15.7652 8.32533C15.6602 8.96117 16.0907 9.562 16.7265 9.66583L21.6802 10.4848C21.7443 10.4953 21.8097 10.5 21.8715 10.5C22.0103 10.5 22.1457 10.4755 22.2717 10.4288C22.3148 10.4125 22.3498 10.3822 22.3918 10.36C22.4688 10.3203 22.5493 10.2853 22.6158 10.2293C22.6578 10.1955 22.6847 10.1465 22.7208 10.1068C22.7757 10.0497 22.834 9.99483 22.8748 9.92483C22.904 9.87467 22.9157 9.81517 22.9378 9.75917C22.9658 9.69033 23.0032 9.62617 23.0172 9.55033L23.8968 4.88367C24.0158 4.25017 23.5993 3.63883 22.9658 3.521C22.3347 3.40667 21.7222 3.8185 21.6032 4.45083L21.2858 6.132C19.3445 4.45083 16.856 3.5 14.2147 3.5C8.30667 3.5 3.5 8.20983 3.5 14C3.5 19.7902 8.30667 24.5 14.2147 24.5C18.9303 24.5 23.0417 21.5378 24.4452 17.129C24.64 16.5153 24.3005 15.8597 23.6868 15.6637Z" fill="white"/>
</mask>
<g mask="url(#mask0)">
</g>
</svg>
