<svg width="28" height="28" viewBox="0 0 28 28" fill="none" xmlns="http://www.w3.org/2000/svg">
<path fill-rule="evenodd" clip-rule="evenodd" d="M24.4965 12.8031H24.5C25.1428 12.8031 25.6655 13.3234 25.6667 13.9663C25.676 17.0824 24.4708 20.0166 22.2728 22.2263C20.076 24.4359 17.15 25.6574 14.0338 25.6668H14C10.8955 25.6668 7.97534 24.4628 5.77384 22.2729C3.56417 20.0761 2.34267 17.1501 2.33334 14.0339C2.324 10.9166 3.52917 7.9836 5.72717 5.77393C7.924 3.56427 10.85 2.34277 13.9662 2.33344C14.8937 2.34744 15.8387 2.44077 16.744 2.65777C17.3693 2.80944 17.7555 3.43944 17.6038 4.06594C17.4533 4.69127 16.8198 5.07627 16.1968 4.92693C15.4723 4.75194 14.7035 4.67844 13.9732 4.66677C11.48 4.67377 9.1385 5.65144 7.3815 7.41894C5.62334 9.18644 4.65967 11.5338 4.66667 14.0269C4.67367 16.5201 5.65134 18.8604 7.41884 20.6186C9.1805 22.3698 11.5162 23.3334 14 23.3334H14.0268C16.52 23.3264 18.8615 22.3488 20.6185 20.5813C22.3767 18.8126 23.3403 16.4664 23.3333 13.9733C23.3322 13.3293 23.8525 12.8043 24.4965 12.8031ZM9.67517 13.1752C10.1313 12.719 10.8687 12.719 11.3248 13.1752L13.9428 15.7932L21.2893 7.39782C21.714 6.91599 22.4502 6.86466 22.9355 7.28932C23.4197 7.71282 23.4687 8.45016 23.044 8.93549L14.8773 18.2688C14.665 18.5115 14.3617 18.655 14.0385 18.6667H14C13.6908 18.6667 13.3945 18.5442 13.1752 18.3248L9.67517 14.8248C9.21901 14.3687 9.21901 13.6313 9.67517 13.1752Z" fill="#8F8F8F"/>
<mask id="mask0" mask-type="alpha" maskUnits="userSpaceOnUse" x="2" y="2" width="24" height="24">
<path fill-rule="evenodd" clip-rule="evenodd" d="M24.4965 12.8031H24.5C25.1428 12.8031 25.6655 13.3234 25.6667 13.9663C25.676 17.0824 24.4708 20.0166 22.2728 22.2263C20.076 24.4359 17.15 25.6574 14.0338 25.6668H14C10.8955 25.6668 7.97534 24.4628 5.77384 22.2729C3.56417 20.0761 2.34267 17.1501 2.33334 14.0339C2.324 10.9166 3.52917 7.9836 5.72717 5.77393C7.924 3.56427 10.85 2.34277 13.9662 2.33344C14.8937 2.34744 15.8387 2.44077 16.744 2.65777C17.3693 2.80944 17.7555 3.43944 17.6038 4.06594C17.4533 4.69127 16.8198 5.07627 16.1968 4.92693C15.4723 4.75194 14.7035 4.67844 13.9732 4.66677C11.48 4.67377 9.1385 5.65144 7.3815 7.41894C5.62334 9.18644 4.65967 11.5338 4.66667 14.0269C4.67367 16.5201 5.65134 18.8604 7.41884 20.6186C9.1805 22.3698 11.5162 23.3334 14 23.3334H14.0268C16.52 23.3264 18.8615 22.3488 20.6185 20.5813C22.3767 18.8126 23.3403 16.4664 23.3333 13.9733C23.3322 13.3293 23.8525 12.8043 24.4965 12.8031ZM9.67517 13.1752C10.1313 12.719 10.8687 12.719 11.3248 13.1752L13.9428 15.7932L21.2893 7.39782C21.714 6.91599 22.4502 6.86466 22.9355 7.28932C23.4197 7.71282 23.4687 8.45016 23.044 8.93549L14.8773 18.2688C14.665 18.5115 14.3617 18.655 14.0385 18.6667H14C13.6908 18.6667 13.3945 18.5442 13.1752 18.3248L9.67517 14.8248C9.21901 14.3687 9.21901 13.6313 9.67517 13.1752Z" fill="white"/>
</mask>
<g mask="url(#mask0)">
</g>
</svg>
