<svg width="28" height="28" viewBox="0 0 28 28" fill="none" xmlns="http://www.w3.org/2000/svg">
<path fill-rule="evenodd" clip-rule="evenodd" d="M14.0001 18.6668C13.3561 18.6668 12.8334 18.1442 12.8334 17.5002C12.8334 16.8562 13.3561 16.3335 14.0001 16.3335C14.6441 16.3335 15.1667 16.8562 15.1667 17.5002C15.1667 18.1442 14.6441 18.6668 14.0001 18.6668ZM14.0001 14.0002C12.0704 14.0002 10.5001 15.5705 10.5001 17.5002C10.5001 19.4298 12.0704 21.0002 14.0001 21.0002C15.9297 21.0002 17.5001 19.4298 17.5001 17.5002C17.5001 15.5705 15.9297 14.0002 14.0001 14.0002ZM21.0001 22.1668C21.0001 22.8108 20.4774 23.3335 19.8334 23.3335H8.16675C7.52275 23.3335 7.00008 22.8108 7.00008 22.1668V12.8335C7.00008 12.1895 7.52275 11.6668 8.16675 11.6668H9.33341H11.6667H16.3334H18.6667H19.8334C20.4774 11.6668 21.0001 12.1895 21.0001 12.8335V22.1668ZM11.6667 7.12966C11.6667 5.77166 12.7132 4.66683 14.0001 4.66683C15.2869 4.66683 16.3334 5.77166 16.3334 7.12966V9.3335H11.6667V7.12966ZM19.8334 9.3335H18.6667V7.12966C18.6667 4.486 16.5737 2.3335 14.0001 2.3335C11.4264 2.3335 9.33341 4.486 9.33341 7.12966V9.3335H8.16675C6.23708 9.3335 4.66675 10.9038 4.66675 12.8335V22.1668C4.66675 24.0965 6.23708 25.6668 8.16675 25.6668H19.8334C21.7631 25.6668 23.3334 24.0965 23.3334 22.1668V12.8335C23.3334 10.9038 21.7631 9.3335 19.8334 9.3335Z" fill="#8F8F8F"/>
<mask id="mask0" mask-type="alpha" maskUnits="userSpaceOnUse" x="4" y="2" width="20" height="24">
<path fill-rule="evenodd" clip-rule="evenodd" d="M14.0001 18.6668C13.3561 18.6668 12.8334 18.1442 12.8334 17.5002C12.8334 16.8562 13.3561 16.3335 14.0001 16.3335C14.6441 16.3335 15.1667 16.8562 15.1667 17.5002C15.1667 18.1442 14.6441 18.6668 14.0001 18.6668ZM14.0001 14.0002C12.0704 14.0002 10.5001 15.5705 10.5001 17.5002C10.5001 19.4298 12.0704 21.0002 14.0001 21.0002C15.9297 21.0002 17.5001 19.4298 17.5001 17.5002C17.5001 15.5705 15.9297 14.0002 14.0001 14.0002ZM21.0001 22.1668C21.0001 22.8108 20.4774 23.3335 19.8334 23.3335H8.16675C7.52275 23.3335 7.00008 22.8108 7.00008 22.1668V12.8335C7.00008 12.1895 7.52275 11.6668 8.16675 11.6668H9.33341H11.6667H16.3334H18.6667H19.8334C20.4774 11.6668 21.0001 12.1895 21.0001 12.8335V22.1668ZM11.6667 7.12966C11.6667 5.77166 12.7132 4.66683 14.0001 4.66683C15.2869 4.66683 16.3334 5.77166 16.3334 7.12966V9.3335H11.6667V7.12966ZM19.8334 9.3335H18.6667V7.12966C18.6667 4.486 16.5737 2.3335 14.0001 2.3335C11.4264 2.3335 9.33341 4.486 9.33341 7.12966V9.3335H8.16675C6.23708 9.3335 4.66675 10.9038 4.66675 12.8335V22.1668C4.66675 24.0965 6.23708 25.6668 8.16675 25.6668H19.8334C21.7631 25.6668 23.3334 24.0965 23.3334 22.1668V12.8335C23.3334 10.9038 21.7631 9.3335 19.8334 9.3335Z" fill="white"/>
</mask>
<g mask="url(#mask0)">
</g>
</svg>
