<svg width="310" height="315" viewBox="0 0 310 315" fill="none" xmlns="http://www.w3.org/2000/svg">
<path d="M53.1225 0.698208C190.122 18.6982 423.123 95.6979 245.123 207.698C67.1224 319.699 -83.8773 -17.3018 53.1225 0.698208Z" fill="#C33364"/>
<circle cx="110.5" cy="165.693" r="2.08333" fill="#F56C9B"/>
<circle cx="111.321" cy="249.554" r="2.08333" fill="#F56C9B"/>
<circle cx="111.321" cy="207.708" r="2.08333" fill="#F56C9B"/>
<circle cx="112.141" cy="291.57" r="2.08333" fill="#F56C9B"/>
<circle cx="131.013" cy="165.693" r="2.08333" fill="#F56C9B"/>
<circle cx="131.833" cy="249.554" r="2.08333" fill="#F56C9B"/>
<circle cx="131.833" cy="207.708" r="2.08333" fill="#F56C9B"/>
<circle cx="132.654" cy="291.57" r="2.08333" fill="#F56C9B"/>
<circle cx="151.526" cy="165.669" r="2.08333" fill="#F56C9B"/>
<circle cx="152.346" cy="249.53" r="2.08333" fill="#F56C9B"/>
<circle cx="152.346" cy="207.684" r="2.08333" fill="#F56C9B"/>
<circle cx="153.167" cy="291.545" r="2.08333" fill="#F56C9B"/>
<circle cx="172.038" cy="165.645" r="2.08333" fill="#F56C9B"/>
<circle cx="172.859" cy="249.506" r="2.08333" fill="#F56C9B"/>
<circle cx="172.859" cy="207.66" r="2.08333" fill="#F56C9B"/>
<circle cx="173.679" cy="291.521" r="2.08333" fill="#F56C9B"/>
<circle cx="192.551" cy="165.621" r="2.08333" fill="#F56C9B"/>
<circle cx="193.372" cy="249.482" r="2.08333" fill="#F56C9B"/>
<circle cx="193.372" cy="207.636" r="2.08333" fill="#F56C9B"/>
<circle cx="194.192" cy="291.497" r="2.08333" fill="#F56C9B"/>
<circle cx="213.064" cy="165.597" r="2.08333" fill="#F56C9B"/>
<circle cx="213.885" cy="249.458" r="2.08333" fill="#F56C9B"/>
<circle cx="213.885" cy="207.612" r="2.08333" fill="#F56C9B"/>
<circle cx="214.705" cy="291.473" r="2.08333" fill="#F56C9B"/>
<circle cx="233.577" cy="165.572" r="2.08333" fill="#F56C9B"/>
<circle cx="234.397" cy="249.434" r="2.08333" fill="#F56C9B"/>
<circle cx="234.397" cy="207.588" r="2.08333" fill="#F56C9B"/>
<circle cx="235.218" cy="291.449" r="2.08333" fill="#F56C9B"/>
<circle cx="254.09" cy="165.548" r="2.08333" fill="#F56C9B"/>
<circle cx="254.91" cy="249.41" r="2.08333" fill="#F56C9B"/>
<circle cx="254.91" cy="207.563" r="2.08333" fill="#F56C9B"/>
<circle cx="255.731" cy="291.425" r="2.08333" fill="#F56C9B"/>
<circle cx="274.603" cy="165.524" r="2.08333" fill="#F56C9B"/>
<circle cx="275.423" cy="249.385" r="2.08333" fill="#F56C9B"/>
<circle cx="275.423" cy="207.539" r="2.08333" fill="#F56C9B"/>
<circle cx="276.244" cy="291.401" r="2.08333" fill="#F56C9B"/>
<circle cx="295.115" cy="165.5" r="2.08333" fill="#F56C9B"/>
<circle cx="295.936" cy="249.361" r="2.08333" fill="#F56C9B"/>
<circle cx="295.936" cy="207.515" r="2.08333" fill="#F56C9B"/>
<circle cx="296.757" cy="291.376" r="2.08333" fill="#F56C9B"/>
<circle cx="110.5" cy="186.375" r="2.08333" fill="#F56C9B"/>
<circle cx="111.321" cy="270.236" r="2.08333" fill="#F56C9B"/>
<circle cx="111.321" cy="228.39" r="2.08333" fill="#F56C9B"/>
<circle cx="112.141" cy="312.251" r="2.08333" fill="#F56C9B"/>
<circle cx="131.013" cy="186.375" r="2.08333" fill="#F56C9B"/>
<circle cx="131.833" cy="270.236" r="2.08333" fill="#F56C9B"/>
<circle cx="131.833" cy="228.39" r="2.08333" fill="#F56C9B"/>
<circle cx="132.654" cy="312.251" r="2.08333" fill="#F56C9B"/>
<circle cx="151.526" cy="186.351" r="2.08333" fill="#F56C9B"/>
<circle cx="152.346" cy="270.212" r="2.08333" fill="#F56C9B"/>
<circle cx="152.346" cy="228.366" r="2.08333" fill="#F56C9B"/>
<circle cx="153.167" cy="312.227" r="2.08333" fill="#F56C9B"/>
<circle cx="172.038" cy="186.327" r="2.08333" fill="#F56C9B"/>
<circle cx="172.859" cy="270.188" r="2.08333" fill="#F56C9B"/>
<circle cx="172.859" cy="228.342" r="2.08333" fill="#F56C9B"/>
<circle cx="173.679" cy="312.203" r="2.08333" fill="#F56C9B"/>
<circle cx="192.551" cy="186.303" r="2.08333" fill="#F56C9B"/>
<circle cx="193.372" cy="270.164" r="2.08333" fill="#F56C9B"/>
<circle cx="193.372" cy="228.318" r="2.08333" fill="#F56C9B"/>
<circle cx="194.192" cy="312.179" r="2.08333" fill="#F56C9B"/>
<circle cx="213.064" cy="186.278" r="2.08333" fill="#F56C9B"/>
<circle cx="213.885" cy="270.14" r="2.08333" fill="#F56C9B"/>
<circle cx="213.885" cy="228.293" r="2.08333" fill="#F56C9B"/>
<circle cx="214.705" cy="312.155" r="2.08333" fill="#F56C9B"/>
<circle cx="233.577" cy="186.254" r="2.08333" fill="#F56C9B"/>
<circle cx="234.397" cy="270.115" r="2.08333" fill="#F56C9B"/>
<circle cx="234.397" cy="228.269" r="2.08333" fill="#F56C9B"/>
<circle cx="235.218" cy="312.131" r="2.08333" fill="#F56C9B"/>
<circle cx="254.09" cy="186.23" r="2.08333" fill="#F56C9B"/>
<circle cx="254.91" cy="270.091" r="2.08333" fill="#F56C9B"/>
<circle cx="254.91" cy="228.245" r="2.08333" fill="#F56C9B"/>
<circle cx="255.731" cy="312.106" r="2.08333" fill="#F56C9B"/>
<circle cx="274.603" cy="186.206" r="2.08333" fill="#F56C9B"/>
<circle cx="275.423" cy="270.067" r="2.08333" fill="#F56C9B"/>
<circle cx="275.423" cy="228.221" r="2.08333" fill="#F56C9B"/>
<circle cx="276.244" cy="312.082" r="2.08333" fill="#F56C9B"/>
<circle cx="295.115" cy="186.182" r="2.08333" fill="#F56C9B"/>
<circle cx="295.936" cy="270.043" r="2.08333" fill="#F56C9B"/>
<circle cx="295.936" cy="228.197" r="2.08333" fill="#F56C9B"/>
<circle cx="296.757" cy="312.058" r="2.08333" fill="#F56C9B"/>
</svg>
