<svg width="28" height="28" viewBox="0 0 28 28" fill="none" xmlns="http://www.w3.org/2000/svg">
<path fill-rule="evenodd" clip-rule="evenodd" d="M20.9999 22.1667C20.3559 22.1667 19.8333 21.644 19.8333 21C19.8333 20.356 20.3559 19.8333 20.9999 19.8333C21.6439 19.8333 22.1666 20.356 22.1666 21C22.1666 21.644 21.6439 22.1667 20.9999 22.1667ZM5.83325 15.1667C5.18925 15.1667 4.66659 14.644 4.66659 14C4.66659 13.356 5.18925 12.8333 5.83325 12.8333C6.47725 12.8333 6.99992 13.356 6.99992 14C6.99992 14.644 6.47725 15.1667 5.83325 15.1667ZM20.9999 5.83333C21.6439 5.83333 22.1666 6.356 22.1666 7C22.1666 7.644 21.6439 8.16667 20.9999 8.16667C20.3559 8.16667 19.8333 7.644 19.8333 7C19.8333 6.356 20.3559 5.83333 20.9999 5.83333ZM20.9999 17.5C20.0468 17.5 19.1834 17.885 18.5511 18.5045L9.29359 14.3908C9.30875 14.2613 9.33325 14.133 9.33325 14C9.33325 13.867 9.30875 13.7387 9.29359 13.6092L18.5511 9.4955C19.1834 10.115 20.0468 10.5 20.9999 10.5C22.9296 10.5 24.4999 8.92967 24.4999 7C24.4999 5.07033 22.9296 3.5 20.9999 3.5C19.0703 3.5 17.4999 5.07033 17.4999 7C17.4999 7.133 17.5244 7.26133 17.5396 7.39083L8.28208 11.5045C7.64975 10.885 6.78642 10.5 5.83325 10.5C3.90359 10.5 2.33325 12.0703 2.33325 14C2.33325 15.9297 3.90359 17.5 5.83325 17.5C6.78642 17.5 7.64975 17.115 8.28208 16.4955L17.5396 20.6092C17.5244 20.7387 17.4999 20.867 17.4999 21C17.4999 22.9297 19.0703 24.5 20.9999 24.5C22.9296 24.5 24.4999 22.9297 24.4999 21C24.4999 19.0703 22.9296 17.5 20.9999 17.5Z" fill="#8F8F8F"/>
<mask id="mask0" mask-type="alpha" maskUnits="userSpaceOnUse" x="2" y="3" width="23" height="22">
<path fill-rule="evenodd" clip-rule="evenodd" d="M20.9999 22.1667C20.3559 22.1667 19.8333 21.644 19.8333 21C19.8333 20.356 20.3559 19.8333 20.9999 19.8333C21.6439 19.8333 22.1666 20.356 22.1666 21C22.1666 21.644 21.6439 22.1667 20.9999 22.1667ZM5.83325 15.1667C5.18925 15.1667 4.66659 14.644 4.66659 14C4.66659 13.356 5.18925 12.8333 5.83325 12.8333C6.47725 12.8333 6.99992 13.356 6.99992 14C6.99992 14.644 6.47725 15.1667 5.83325 15.1667ZM20.9999 5.83333C21.6439 5.83333 22.1666 6.356 22.1666 7C22.1666 7.644 21.6439 8.16667 20.9999 8.16667C20.3559 8.16667 19.8333 7.644 19.8333 7C19.8333 6.356 20.3559 5.83333 20.9999 5.83333ZM20.9999 17.5C20.0468 17.5 19.1834 17.885 18.5511 18.5045L9.29359 14.3908C9.30875 14.2613 9.33325 14.133 9.33325 14C9.33325 13.867 9.30875 13.7387 9.29359 13.6092L18.5511 9.4955C19.1834 10.115 20.0468 10.5 20.9999 10.5C22.9296 10.5 24.4999 8.92967 24.4999 7C24.4999 5.07033 22.9296 3.5 20.9999 3.5C19.0703 3.5 17.4999 5.07033 17.4999 7C17.4999 7.133 17.5244 7.26133 17.5396 7.39083L8.28208 11.5045C7.64975 10.885 6.78642 10.5 5.83325 10.5C3.90359 10.5 2.33325 12.0703 2.33325 14C2.33325 15.9297 3.90359 17.5 5.83325 17.5C6.78642 17.5 7.64975 17.115 8.28208 16.4955L17.5396 20.6092C17.5244 20.7387 17.4999 20.867 17.4999 21C17.4999 22.9297 19.0703 24.5 20.9999 24.5C22.9296 24.5 24.4999 22.9297 24.4999 21C24.4999 19.0703 22.9296 17.5 20.9999 17.5Z" fill="white"/>
</mask>
<g mask="url(#mask0)">
</g>
</svg>
