<svg width="28" height="28" viewBox="0 0 28 28" fill="none" xmlns="http://www.w3.org/2000/svg">
<path fill-rule="evenodd" clip-rule="evenodd" d="M3.5 8.16667C3.5 7.52267 4.02267 7 4.66667 7C5.31067 7 5.83333 7.52267 5.83333 8.16667C5.83333 8.81067 5.31067 9.33333 4.66667 9.33333C4.02267 9.33333 3.5 8.81067 3.5 8.16667ZM3.5 14C3.5 13.356 4.02267 12.8333 4.66667 12.8333C5.31067 12.8333 5.83333 13.356 5.83333 14C5.83333 14.644 5.31067 15.1667 4.66667 15.1667C4.02267 15.1667 3.5 14.644 3.5 14ZM4.66667 18.6667C4.02267 18.6667 3.5 19.1893 3.5 19.8333C3.5 20.4773 4.02267 21 4.66667 21C5.31067 21 5.83333 20.4773 5.83333 19.8333C5.83333 19.1893 5.31067 18.6667 4.66667 18.6667ZM9.25808 12.8333H23.4086C24.0094 12.8333 24.5006 13.3245 24.5006 13.9253V14.0747C24.5006 14.6755 24.0094 15.1667 23.4086 15.1667H9.25808C8.65725 15.1667 8.16725 14.6755 8.16725 14.0747V13.9253C8.16725 13.3245 8.65725 12.8333 9.25808 12.8333ZM23.4086 18.6667H9.25808C8.65725 18.6667 8.16725 19.1578 8.16725 19.7587V19.908C8.16725 20.5088 8.65725 21 9.25808 21H23.4086C24.0094 21 24.5006 20.5088 24.5006 19.908V19.7587C24.5006 19.1578 24.0094 18.6667 23.4086 18.6667ZM9.25808 7H23.4086C24.0094 7 24.5006 7.49117 24.5006 8.092V8.24133C24.5006 8.84217 24.0094 9.33333 23.4086 9.33333H9.25808C8.65725 9.33333 8.16725 8.84217 8.16725 8.24133V8.092C8.16725 7.49117 8.65725 7 9.25808 7Z" fill="#8F8F8F"/>
<mask id="mask0" mask-type="alpha" maskUnits="userSpaceOnUse" x="3" y="7" width="22" height="14">
<path fill-rule="evenodd" clip-rule="evenodd" d="M3.5 8.16667C3.5 7.52267 4.02267 7 4.66667 7C5.31067 7 5.83333 7.52267 5.83333 8.16667C5.83333 8.81067 5.31067 9.33333 4.66667 9.33333C4.02267 9.33333 3.5 8.81067 3.5 8.16667ZM3.5 14C3.5 13.356 4.02267 12.8333 4.66667 12.8333C5.31067 12.8333 5.83333 13.356 5.83333 14C5.83333 14.644 5.31067 15.1667 4.66667 15.1667C4.02267 15.1667 3.5 14.644 3.5 14ZM4.66667 18.6667C4.02267 18.6667 3.5 19.1893 3.5 19.8333C3.5 20.4773 4.02267 21 4.66667 21C5.31067 21 5.83333 20.4773 5.83333 19.8333C5.83333 19.1893 5.31067 18.6667 4.66667 18.6667ZM9.25808 12.8333H23.4086C24.0094 12.8333 24.5006 13.3245 24.5006 13.9253V14.0747C24.5006 14.6755 24.0094 15.1667 23.4086 15.1667H9.25808C8.65725 15.1667 8.16725 14.6755 8.16725 14.0747V13.9253C8.16725 13.3245 8.65725 12.8333 9.25808 12.8333ZM23.4086 18.6667H9.25808C8.65725 18.6667 8.16725 19.1578 8.16725 19.7587V19.908C8.16725 20.5088 8.65725 21 9.25808 21H23.4086C24.0094 21 24.5006 20.5088 24.5006 19.908V19.7587C24.5006 19.1578 24.0094 18.6667 23.4086 18.6667ZM9.25808 7H23.4086C24.0094 7 24.5006 7.49117 24.5006 8.092V8.24133C24.5006 8.84217 24.0094 9.33333 23.4086 9.33333H9.25808C8.65725 9.33333 8.16725 8.84217 8.16725 8.24133V8.092C8.16725 7.49117 8.65725 7 9.25808 7Z" fill="white"/>
</mask>
<g mask="url(#mask0)">
</g>
</svg>
