<svg width="477" height="43" viewBox="0 0 477 43" fill="none" xmlns="http://www.w3.org/2000/svg">
<ellipse cx="1.55186" cy="1.50978" rx="1.29321" ry="1.24537" fill="#C33364"/>
<ellipse cx="185.911" cy="1.50978" rx="1.29321" ry="1.24537" fill="#C33364"/>
<ellipse cx="1.55186" cy="21.3269" rx="1.29321" ry="1.24537" fill="#C33364"/>
<ellipse cx="185.911" cy="21.3269" rx="1.29321" ry="1.24537" fill="#C33364"/>
<ellipse cx="1.55186" cy="41.144" rx="1.29321" ry="1.24536" fill="#C33364"/>
<ellipse cx="185.911" cy="41.144" rx="1.29321" ry="1.24536" fill="#C33364"/>
<ellipse cx="27.8462" cy="1.50978" rx="1.29321" ry="1.24537" fill="#C33364"/>
<ellipse cx="212.205" cy="1.50978" rx="1.29321" ry="1.24537" fill="#C33364"/>
<ellipse cx="27.8462" cy="21.3269" rx="1.29321" ry="1.24537" fill="#C33364"/>
<ellipse cx="212.205" cy="21.3269" rx="1.29321" ry="1.24537" fill="#C33364"/>
<ellipse cx="27.8462" cy="41.144" rx="1.29321" ry="1.24536" fill="#C33364"/>
<ellipse cx="212.205" cy="41.144" rx="1.29321" ry="1.24536" fill="#C33364"/>
<ellipse cx="54.1406" cy="1.50978" rx="1.29321" ry="1.24537" fill="#C33364"/>
<ellipse cx="238.5" cy="1.50978" rx="1.29321" ry="1.24537" fill="#C33364"/>
<ellipse cx="370.27" cy="1.50978" rx="1.29318" ry="1.24537" fill="#C33364"/>
<ellipse cx="54.1406" cy="21.3269" rx="1.29321" ry="1.24537" fill="#C33364"/>
<ellipse cx="238.5" cy="21.3269" rx="1.29321" ry="1.24537" fill="#C33364"/>
<ellipse cx="370.27" cy="21.3269" rx="1.29318" ry="1.24537" fill="#C33364"/>
<ellipse cx="54.1406" cy="41.144" rx="1.29321" ry="1.24536" fill="#C33364"/>
<ellipse cx="238.5" cy="41.144" rx="1.29321" ry="1.24536" fill="#C33364"/>
<ellipse cx="370.27" cy="41.144" rx="1.29318" ry="1.24536" fill="#C33364"/>
<ellipse cx="80.435" cy="1.50978" rx="1.29318" ry="1.24537" fill="#C33364"/>
<ellipse cx="264.794" cy="1.50978" rx="1.29318" ry="1.24537" fill="#C33364"/>
<ellipse cx="396.565" cy="1.50978" rx="1.29321" ry="1.24537" fill="#C33364"/>
<ellipse cx="80.435" cy="21.3269" rx="1.29318" ry="1.24537" fill="#C33364"/>
<ellipse cx="264.794" cy="21.3269" rx="1.29318" ry="1.24537" fill="#C33364"/>
<ellipse cx="396.565" cy="21.3269" rx="1.29321" ry="1.24537" fill="#C33364"/>
<ellipse cx="80.435" cy="41.144" rx="1.29318" ry="1.24536" fill="#C33364"/>
<ellipse cx="264.794" cy="41.144" rx="1.29318" ry="1.24536" fill="#C33364"/>
<ellipse cx="396.565" cy="41.144" rx="1.29321" ry="1.24536" fill="#C33364"/>
<ellipse cx="106.73" cy="1.50978" rx="1.29321" ry="1.24537" fill="#C33364"/>
<ellipse cx="291.089" cy="1.50978" rx="1.29318" ry="1.24537" fill="#C33364"/>
<ellipse cx="422.859" cy="1.50978" rx="1.29321" ry="1.24537" fill="#C33364"/>
<ellipse cx="106.73" cy="21.3269" rx="1.29321" ry="1.24537" fill="#C33364"/>
<ellipse cx="291.089" cy="21.3269" rx="1.29318" ry="1.24537" fill="#C33364"/>
<ellipse cx="422.859" cy="21.3269" rx="1.29321" ry="1.24537" fill="#C33364"/>
<ellipse cx="106.73" cy="41.144" rx="1.29321" ry="1.24536" fill="#C33364"/>
<ellipse cx="291.089" cy="41.144" rx="1.29318" ry="1.24536" fill="#C33364"/>
<ellipse cx="422.859" cy="41.144" rx="1.29321" ry="1.24536" fill="#C33364"/>
<ellipse cx="133.024" cy="1.50978" rx="1.29321" ry="1.24537" fill="#C33364"/>
<ellipse cx="317.383" cy="1.50978" rx="1.29321" ry="1.24537" fill="#C33364"/>
<ellipse cx="449.154" cy="1.50978" rx="1.29321" ry="1.24537" fill="#C33364"/>
<ellipse cx="133.024" cy="21.3269" rx="1.29321" ry="1.24537" fill="#C33364"/>
<ellipse cx="317.383" cy="21.3269" rx="1.29321" ry="1.24537" fill="#C33364"/>
<ellipse cx="449.154" cy="21.3269" rx="1.29321" ry="1.24537" fill="#C33364"/>
<ellipse cx="133.024" cy="41.144" rx="1.29321" ry="1.24536" fill="#C33364"/>
<ellipse cx="317.383" cy="41.144" rx="1.29321" ry="1.24536" fill="#C33364"/>
<ellipse cx="449.154" cy="41.144" rx="1.29321" ry="1.24536" fill="#C33364"/>
<ellipse cx="159.318" cy="1.50978" rx="1.29321" ry="1.24537" fill="#C33364"/>
<ellipse cx="343.678" cy="1.50978" rx="1.29321" ry="1.24537" fill="#C33364"/>
<ellipse cx="475.448" cy="1.50978" rx="1.29321" ry="1.24537" fill="#C33364"/>
<ellipse cx="159.318" cy="21.3269" rx="1.29321" ry="1.24537" fill="#C33364"/>
<ellipse cx="343.678" cy="21.3269" rx="1.29321" ry="1.24537" fill="#C33364"/>
<ellipse cx="475.448" cy="21.3269" rx="1.29321" ry="1.24537" fill="#C33364"/>
<ellipse cx="159.318" cy="41.144" rx="1.29321" ry="1.24536" fill="#C33364"/>
<ellipse cx="343.678" cy="41.144" rx="1.29321" ry="1.24536" fill="#C33364"/>
<ellipse cx="475.448" cy="41.144" rx="1.29321" ry="1.24536" fill="#C33364"/>
</svg>
