<svg width="28" height="28" viewBox="0 0 28 28" fill="none" xmlns="http://www.w3.org/2000/svg">
<path fill-rule="evenodd" clip-rule="evenodd" d="M8.42289 7.00033C7.4149 7.00033 6.46989 7.38999 5.7629 8.09816C4.29523 9.56816 4.29523 11.961 5.76406 13.4333L13.9996 21.6828L22.2362 13.4333C23.7051 11.961 23.7051 9.56816 22.2362 8.09816C20.8222 6.68066 18.3302 6.68299 16.9162 8.09816L14.8256 10.1923C14.3869 10.6322 13.6122 10.6322 13.1736 10.1923L11.0829 8.09699C10.3759 7.38999 9.43206 7.00033 8.42289 7.00033ZM13.9996 24.5003C13.6904 24.5003 13.3929 24.3778 13.1747 24.1573L4.11207 15.0807C1.73673 12.7007 1.73673 8.82849 4.11207 6.44849C5.26007 5.30049 6.79073 4.66699 8.4229 4.66699C10.0551 4.66699 11.5869 5.30049 12.7337 6.44849L13.9996 7.71666L15.2654 6.44966C16.4134 5.30049 17.9441 4.66699 19.5774 4.66699C21.2084 4.66699 22.7402 5.30049 23.8871 6.44849C26.2636 8.82849 26.2636 12.7007 23.8882 15.0807L14.8256 24.1585C14.6062 24.3778 14.3099 24.5003 13.9996 24.5003Z" fill="#8F8F8F"/>
<mask id="mask0" mask-type="alpha" maskUnits="userSpaceOnUse" x="2" y="4" width="24" height="21">
<path fill-rule="evenodd" clip-rule="evenodd" d="M8.42289 7.00033C7.4149 7.00033 6.46989 7.38999 5.7629 8.09816C4.29523 9.56816 4.29523 11.961 5.76406 13.4333L13.9996 21.6828L22.2362 13.4333C23.7051 11.961 23.7051 9.56816 22.2362 8.09816C20.8222 6.68066 18.3302 6.68299 16.9162 8.09816L14.8256 10.1923C14.3869 10.6322 13.6122 10.6322 13.1736 10.1923L11.0829 8.09699C10.3759 7.38999 9.43206 7.00033 8.42289 7.00033ZM13.9996 24.5003C13.6904 24.5003 13.3929 24.3778 13.1747 24.1573L4.11207 15.0807C1.73673 12.7007 1.73673 8.82849 4.11207 6.44849C5.26007 5.30049 6.79073 4.66699 8.4229 4.66699C10.0551 4.66699 11.5869 5.30049 12.7337 6.44849L13.9996 7.71666L15.2654 6.44966C16.4134 5.30049 17.9441 4.66699 19.5774 4.66699C21.2084 4.66699 22.7402 5.30049 23.8871 6.44849C26.2636 8.82849 26.2636 12.7007 23.8882 15.0807L14.8256 24.1585C14.6062 24.3778 14.3099 24.5003 13.9996 24.5003Z" fill="white"/>
</mask>
<g mask="url(#mask0)">
</g>
</svg>
